<?xml version="1.0" standalone="no"?>
<!DOCTYPE svg PUBLIC "-//W3C//DTD SVG 20010904//EN"
 "http://www.w3.org/TR/2001/REC-SVG-20010904/DTD/svg10.dtd">
<svg version="1.0" xmlns="http://www.w3.org/2000/svg"
 width="512.000000pt" height="512.000000pt" viewBox="0 0 512.000000 512.000000"
 preserveAspectRatio="xMidYMid meet">
<metadata>
Created by potrace 1.14, written by Peter Selinger 2001-2017
</metadata>
<g transform="translate(0.000000,512.000000) scale(0.100000,-0.100000)"
fill="#000000" stroke="none">
<path d="M1136 4668 c-13 -19 -16 -58 -16 -225 l0 -202 -368 -3 -369 -3 -48
-30 c-65 -40 -111 -102 -124 -167 -8 -37 -11 -548 -9 -1733 3 -1526 4 -1683
19 -1716 26 -56 79 -110 134 -135 l50 -24 2155 0 2155 0 50 24 c55 25 108 79
134 135 15 33 16 189 16 1746 l0 1710 -30 55 c-33 60 -96 114 -153 130 -22 6
-176 10 -384 10 l-348 0 0 203 c0 220 -6 247 -55 247 -49 0 -55 -27 -55 -247
l0 -203 -1330 0 -1330 0 0 203 c0 220 -6 247 -55 247 -13 0 -31 -10 -39 -22z
m-16 -668 l0 -140 -40 -16 c-22 -9 -60 -38 -83 -64 -114 -126 -78 -301 77
-383 56 -29 146 -29 202 1 53 27 121 104 134 151 33 118 -33 250 -147 297
l-33 14 0 140 0 140 1330 0 1330 0 0 -140 0 -140 -40 -16 c-50 -20 -122 -99
-138 -152 -27 -90 -8 -169 56 -235 56 -58 106 -81 177 -81 71 0 121 23 177 81
64 66 83 145 56 235 -16 53 -88 132 -138 152 l-40 16 0 140 0 140 345 0 c374
0 386 -2 435 -55 l25 -27 3 -1716 c2 -1666 1 -1718 -17 -1748 -10 -17 -34 -38
-54 -47 -32 -16 -197 -17 -2177 -17 -1980 0 -2145 1 -2177 17 -20 9 -44 30
-54 47 -18 30 -19 85 -19 1734 0 1909 -6 1752 73 1791 40 20 59 21 390 21
l347 0 0 -140z m136 -259 c59 -36 80 -124 46 -190 -27 -54 -62 -74 -127 -74
-65 0 -100 20 -127 74 -35 67 -14 153 44 189 43 26 122 27 164 1z m2772 -1
c58 -36 79 -122 44 -189 -27 -54 -62 -74 -127 -74 -65 0 -100 20 -127 74 -34
66 -13 154 46 190 42 26 121 25 164 -1z"/>
<path d="M732 2978 c-17 -17 -15 -54 4 -72 14 -14 193 -16 1824 -16 1631 0
1810 2 1824 16 19 18 20 38 6 65 -11 19 -42 19 -1828 19 -1401 0 -1821 -3
-1830 -12z"/>
<path d="M832 2483 c-19 -6 -45 -22 -59 -35 -43 -39 -53 -78 -53 -203 0 -139
15 -180 83 -220 40 -23 53 -25 163 -25 138 0 171 12 217 77 27 38 28 43 28
165 0 134 -7 163 -53 204 -12 12 -33 27 -46 33 -31 16 -237 19 -280 4z m268
-112 c5 -11 10 -68 10 -127 0 -144 0 -144 -139 -144 -151 0 -151 0 -151 145 0
149 -4 145 150 145 108 0 120 -2 130 -19z"/>
<path d="M2905 2488 c-42 -11 -87 -50 -106 -92 -14 -32 -19 -65 -19 -148 0
-117 8 -149 48 -192 43 -46 80 -56 201 -56 150 0 193 19 232 105 21 45 26 204
9 264 -11 40 -52 86 -94 108 -32 16 -223 24 -271 11z m253 -110 c8 -8 12 -53
12 -135 0 -148 5 -143 -142 -143 -144 0 -143 -1 -143 143 0 82 4 119 14 130
11 14 34 17 130 17 78 0 121 -4 129 -12z"/>
<path d="M3932 2486 c-46 -15 -79 -44 -101 -89 -17 -36 -21 -62 -21 -150 0
-116 8 -148 48 -191 43 -46 80 -56 202 -56 125 0 162 11 203 59 39 47 49 94
45 212 -3 94 -6 110 -30 146 -39 60 -80 75 -209 77 -60 0 -121 -3 -137 -8z
m256 -108 c8 -8 12 -53 12 -135 0 -148 4 -143 -140 -143 -144 0 -140 -5 -140
143 0 82 4 127 12 135 8 8 51 12 128 12 77 0 120 -4 128 -12z"/>
<path d="M2132 2376 c-51 -56 -106 -115 -122 -131 l-29 -28 -61 57 c-34 31
-68 56 -76 56 -19 0 -54 -36 -54 -57 0 -24 170 -182 197 -183 28 0 306 300
311 336 4 33 -14 54 -47 54 -20 0 -46 -23 -119 -104z"/>
<path d="M830 1479 c-32 -13 -78 -56 -96 -91 -20 -38 -20 -258 0 -296 19 -36
65 -78 99 -91 43 -16 231 -14 272 3 40 17 83 59 97 96 5 14 9 78 9 143 0 108
-2 121 -25 161 -40 68 -87 86 -222 85 -60 0 -120 -5 -134 -10z m268 -111 c17
-17 17 -239 0 -256 -8 -8 -53 -12 -135 -12 -148 0 -143 -4 -143 140 0 144 -5
140 143 140 82 0 127 -4 135 -12z"/>
<path d="M1872 1482 c-36 -11 -93 -62 -108 -98 -9 -22 -14 -72 -14 -146 0
-130 11 -163 73 -212 38 -30 42 -31 158 -34 107 -3 124 -1 165 18 27 14 56 38
71 61 24 37 26 46 26 169 0 123 -2 132 -26 169 -41 62 -93 81 -218 80 -57 -1
-114 -4 -127 -7z m256 -114 c17 -17 17 -239 0 -256 -8 -8 -53 -12 -135 -12
-148 0 -143 -4 -143 140 0 144 -5 140 143 140 82 0 127 -4 135 -12z"/>
<path d="M2884 1471 c-23 -10 -54 -36 -70 -57 -29 -37 -29 -39 -29 -174 0
-135 0 -137 29 -174 45 -59 92 -76 216 -76 129 0 175 18 217 81 27 41 28 47
28 169 0 122 -1 128 -28 169 -42 63 -88 81 -217 81 -81 0 -114 -5 -146 -19z
m274 -103 c17 -17 17 -239 0 -256 -8 -8 -53 -12 -135 -12 -108 0 -125 2 -131
18 -4 9 -7 64 -7 122 0 58 3 113 7 123 6 15 23 17 131 17 82 0 127 -4 135 -12z"/>
<path d="M4251 1398 c-42 -46 -98 -107 -126 -136 l-50 -52 -62 55 c-33 30 -71
55 -82 55 -29 0 -56 -43 -42 -68 17 -32 174 -172 193 -172 20 0 318 323 318
345 0 20 -36 55 -56 55 -9 0 -51 -37 -93 -82z"/>
</g>
</svg>
